<?xml version="1.0" standalone="no"?>
<!DOCTYPE svg PUBLIC "-//W3C//DTD SVG 20010904//EN"
 "http://www.w3.org/TR/2001/REC-SVG-20010904/DTD/svg10.dtd">
<svg version="1.0" xmlns="http://www.w3.org/2000/svg"
 width="512.000000pt" height="512.000000pt" viewBox="0 0 512.000000 512.000000"
 preserveAspectRatio="xMidYMid meet">
<metadata>
Created by potrace 1.14, written by Peter Selinger 2001-2017
</metadata>
<g transform="translate(0.000000,512.000000) scale(0.100000,-0.100000)"
fill="#000000" stroke="none">
<path d="M2267 4900 c-731 -84 -1364 -473 -1761 -1082 -76 -117 -187 -349
-231 -483 -71 -216 -105 -449 -105 -711 0 -655 169 -1205 490 -1599 84 -102
252 -260 361 -337 407 -290 948 -447 1629 -473 l145 -5 -140 29 c-410 87 -832
257 -1143 460 -695 456 -1021 1108 -971 1943 34 572 205 1019 514 1346 446
472 1154 655 1910 492 336 -73 700 -249 936 -454 134 -117 310 -333 416 -514
207 -353 306 -717 306 -1132 -1 -503 -147 -970 -435 -1392 -187 -274 -345
-294 -753 -94 -282 139 -523 296 -660 431 -167 164 -188 293 -64 398 57 49
139 80 314 117 508 108 875 277 1106 509 145 146 214 284 226 454 27 388 -293
784 -852 1057 -554 271 -1159 349 -1593 204 -295 -98 -627 -383 -802 -688
-268 -467 -276 -1030 -24 -1648 79 -195 149 -319 279 -493 220 -294 564 -558
895 -687 108 -43 118 -42 52 2 -279 188 -534 527 -686 914 -189 479 -236 1110
-107 1441 38 97 151 266 236 351 258 261 651 340 1040 210 193 -65 416 -195
532 -311 168 -168 147 -313 -69 -475 -138 -104 -189 -125 -708 -285 -454 -140
-653 -244 -721 -376 -19 -38 -21 -54 -17 -153 4 -94 10 -123 37 -192 75 -192
251 -375 533 -552 51 -33 178 -105 282 -162 104 -56 266 -145 360 -198 512
-286 770 -392 956 -392 106 0 138 14 242 104 159 137 313 345 428 581 139 283
218 554 266 910 24 176 24 559 1 736 -120 910 -580 1570 -1362 1954 -240 118
-472 192 -720 231 -118 18 -457 26 -568 14z"/>
</g>
</svg>
